<svg version="1.2" baseProfile="tiny" viewBox="0 0 193.024 144.271" xmlns:xlink="http://www.w3.org/1999/xlink" xmlns="http://www.w3.org/2000/svg">
<path style="fill:#ffffff;" d="M192.0241,79.3144L192.0241,87.2161C192.0241,88.2376,191.1884,89.0744,190.1653,89.0744L159.0247,89.0744L159.0247,102.9893C159.0247,104.6398,155.0755,104.9701,153.2147,104.9701C151.3559,104.9701,151.049,106.9539,151.049,110.5837L151.049,133.0294L147.9027,137.6778L147.9027,141.8746C147.9027,142.6422,147.2754,143.2683,146.5072,143.2683L140.5601,143.2683C139.7938,143.2683,139.1664,142.6422,139.1664,141.8746C139.1664,142.6422,138.5372,143.2683,137.7709,143.2683L131.8238,143.2683C131.0556,143.2683,130.4283,142.6422,130.4283,141.8746C130.4283,142.6422,129.8009,143.2683,129.0346,143.2683L39.2534,143.2683L39.2534,143.2683C38.4851,143.2683,37.8578,142.6422,37.8578,141.8746C37.8578,142.6422,37.2305,143.2683,36.4642,143.2683L22.7305,143.2683L22.7305,143.2683C21.9642,143.2683,21.3369,142.6422,21.3369,141.8746L21.3369,137.6807L4.7175,137.6807L4.7175,137.6807C2.6734,137.6807,0.9999,136.0072,0.9999,133.9614L0.9999,33.0655C0.9999,31.0197,2.6734,29.3476,4.7175,29.3476L6.3061,29.3476L6.3061,25.1493C6.3061,24.3832,6.9334,23.7557,7.7017,23.7557L6.9276,23.7557L6.9276,23.7557C6.2308,23.7557,6.115,23.193,6.115,22.4962C6.115,22.4529,6.115,22.4284,6.115,22.4212C6.115,21.8787,6.115,21.052,6.115,19.8228C6.115,13.4316,8.6726,10.992,11.925,9.2492C15.1794,7.5064,20.1189,5.1259,20.1189,5.1259C20.3698,4.8749,20.7231,4.7177,21.1033,4.7177L33.4202,4.7177L33.4202,4.7177C34.1865,4.7177,34.8157,5.3438,34.8157,6.1113L34.8157,22.3606C34.8157,23.1266,34.1884,23.7557,33.4202,23.7557L22.7305,23.7557L22.7305,23.7557C22.7305,23.7557,22.107,23.7557,21.1033,23.7557L19.9027,23.7557C20.6709,23.7557,21.2963,24.3818,21.2963,25.1493L21.2963,29.3462L21.3369,29.3462L21.3369,25.1493C21.3369,24.3832,21.9642,23.7557,22.7324,23.7557L36.4661,23.7557C37.2324,23.7557,37.8597,24.3818,37.8597,25.1493C37.8597,24.3832,38.4871,23.7557,39.2553,23.7557L129.0385,23.7557C129.8048,23.7557,130.4321,24.3818,130.4321,25.1493C130.4321,24.3832,131.0594,23.7557,131.8277,23.7557L137.7747,23.7557C138.541,23.7557,139.1703,24.3818,139.1703,25.1493C139.1703,24.3832,139.7976,23.7557,140.5639,23.7557L146.5129,23.7557C147.2793,23.7557,147.9066,24.3818,147.9066,25.1493L147.9066,29.3462L151.0529,33.9946L151.0529,56.4374C151.0529,60.0672,151.3598,62.0524,153.2186,62.0524C155.0774,62.0524,159.0286,62.3813,159.0286,64.0318L159.0286,77.4533L190.1692,77.4533C191.1884,77.4562,192.0241,78.293,192.0241,79.3144M40.5061,23.7557L54.6818,23.7557C55.6855,23.7557,56.309,23.7557,56.309,23.7557L76.2947,23.7557C77.061,23.7557,77.6883,23.1281,77.6883,22.3606L77.6883,2.3949C77.6883,1.6274,77.061,0.9998,76.2947,0.9998L54.6818,0.9998L54.6818,0.9998C54.3015,0.9998,53.9483,1.1585,53.6973,1.4095C53.6973,1.4095,48.7579,3.7886,45.5035,5.5313C42.2491,7.2756,39.6935,9.7152,39.6935,16.1064C39.6935,22.4976,39.6935,21.7993,39.6935,22.4976C39.6935,21.7993,39.8093,23.7557,40.5061,23.7557Z"/>
</svg>