<svg version="1.2" baseProfile="tiny" id="EdgeSVG_oCRbr" x="0px" y="0px" width="193.024px" height="144.271px" viewBox="0 0 193.024 144.271" xmlns:xlink="http://www.w3.org/1999/xlink" xmlns="http://www.w3.org/2000/svg">
  <linearGradient id="SVGID_1_" gradientUnits="userSpaceOnUse" x1="0" y1="72.1357" x2="193.0239" y2="72.1357">
    <stop offset="0" style="stop-color:#000000;stop-opacity:0.5"/>
    <stop offset="1" style="stop-color:#000000;stop-opacity:0.5"/>
  </linearGradient>
  <path fill="url(#SVGID_1_)" d="M190.166,76.456h-30.141V64.034c0-2.689-4.762-2.98-6.81-2.98c-0.614,0-1.166-0.353-1.166-4.615&#xD;&#xA;&#x9;&#x9;v-22.75l-3.146-4.648v-3.89c0-1.32-1.074-2.395-2.395-2.395h-5.948c-0.521,0-1,0.172-1.394,0.456&#xD;&#xA;&#x9;&#x9;c-0.394-0.284-0.873-0.456-1.395-0.456h-5.948c-0.521,0-1.001,0.172-1.395,0.456c-0.394-0.284-0.872-0.456-1.394-0.456H78.649&#xD;&#xA;&#x9;&#x9;c0.021-0.129,0.04-0.26,0.04-0.396V2.395c0-1.32-1.074-2.395-2.395-2.395H54.682c-0.549,0-1.082,0.204-1.507,0.551&#xD;&#xA;&#x9;&#x9;c-0.661,0.319-5.139,2.49-8.145,4.1c-3.292,1.763-6.337,4.372-6.337,11.455v6.391c0,0.121,0.017,0.217,0.025,0.326&#xD;&#xA;&#x9;&#x9;c-0.315,0.073-0.604,0.208-0.859,0.391c-0.394-0.284-0.873-0.456-1.394-0.456h-0.69c0.022-0.129,0.04-0.26,0.04-0.396V6.112&#xD;&#xA;&#x9;&#x9;c0-1.32-1.074-2.394-2.395-2.394H21.104c-0.55,0-1.083,0.204-1.507,0.55c-0.661,0.319-5.139,2.49-8.145,4.1&#xD;&#xA;&#x9;&#x9;c-3.292,1.764-6.337,4.372-6.337,11.455v3.516h0.086c0.076,0.333,0.2,0.584,0.349,0.781c-0.15,0.313-0.242,0.659-0.242,1.029v3.197&#xD;&#xA;&#x9;&#x9;H4.718C2.117,28.347,0,30.464,0,33.065v100.898c0,2.602,2.117,4.719,4.718,4.719h15.618v3.195c0,1.319,1.074,2.394,2.395,2.394&#xD;&#xA;&#x9;&#x9;h13.734c0.521,0,1-0.172,1.394-0.456c0.394,0.284,0.873,0.456,1.395,0.456h89.783c0.521,0,1-0.172,1.394-0.456&#xD;&#xA;&#x9;&#x9;c0.394,0.284,0.873,0.456,1.395,0.456h5.948c0.521,0,1.001-0.172,1.395-0.456c0.394,0.284,0.872,0.456,1.394,0.456h5.948&#xD;&#xA;&#x9;&#x9;c1.32,0,2.395-1.074,2.395-2.394v-3.891l3.146-4.648v-22.753c0-4.262,0.552-4.614,1.166-4.614c2.048,0,6.81-0.29,6.81-2.98V90.076&#xD;&#xA;&#x9;&#x9;h30.141c1.576,0,2.858-1.283,2.858-2.859v-7.901C193.024,77.739,191.742,76.456,190.166,76.456z"/>
</svg>