<svg version="1.2" baseProfile="tiny" id="EdgeSVG_Vf8vm" x="0px" y="0px" width="100.893px" height="103.81px" viewBox="0 0 100.893 103.81" xmlns:xlink="http://www.w3.org/1999/xlink" xmlns="http://www.w3.org/2000/svg">
  <linearGradient id="SVGID_1_" gradientUnits="userSpaceOnUse" x1="0" y1="51.9048" x2="100.8931" y2="51.9048">
    <stop offset="0" style="stop-color:#313131;stop-opacity:0.5"/>
    <stop offset="1" style="stop-color:#313131;stop-opacity:0.5"/>
  </linearGradient>
  <path fill="url(#SVGID_1_)" d="M3.279,103.81v-5.885l5.525-19.022C3.042,70.492,0,60.669,0,50.447C0,22.63,22.63,0,50.447,0&#xD;&#xA;&#x9;&#x9;s50.446,22.63,50.446,50.447c0,10.221-3.041,20.044-8.803,28.456l5.524,19.022v5.885H3.279z M58.485,63.603&#xD;&#xA;&#x9;&#x9;c-0.716,10.017-1.672,23.719-1.823,26.736c14.415-2.128,22.88-11.64,25.149-14.525l-13.358-7.006L58.485,63.603z M19.063,75.767&#xD;&#xA;&#x9;&#x9;c2.323,2.892,10.777,12.178,25.153,14.478l-0.617-15.183l-0.476-11.234c-8.991,4.368-21.264,10.356-24.028,11.771L19.063,75.767z&#xD;&#xA;&#x9;&#x9; M65.674,49.986c8.173,5.531,19.504,13.172,22.373,15.039c1.794-4.608,2.715-9.519,2.715-14.578c0-5.154-0.973-10.087-2.743-14.622&#xD;&#xA;&#x9;&#x9;l-12.781,8.087L65.674,49.986z M12.588,36.582c-1.589,4.325-2.457,8.996-2.457,13.865c0,5.009,0.902,9.872,2.651,14.427&#xD;&#xA;&#x9;&#x9;l12.972-8.208l9.442-5.998L12.588,36.582z M32.666,32.331l10.002,5.225l0.902-26.837c-9.855,1.7-18.495,6.989-24.523,14.47&#xD;&#xA;&#x9;&#x9;L32.666,32.331z M57.295,25.831l0.478,11.274l23.546-12.559c-6.135-7.301-14.805-12.402-24.642-13.935L57.295,25.831z"/>
</svg>