<svg version="1.2" baseProfile="tiny" viewBox="0 0 100.893 103.81" xmlns:xlink="http://www.w3.org/1999/xlink" xmlns="http://www.w3.org/2000/svg">
<path style="fill:#ffffff;" d="M63.9167,50.6084L61.9584,50.569L74.4358,42.6441L87.9383,34.1005C86.1445,29.2277,82.9129,25.3961,82.9129,25.3961L57.3718,39.0191L56.4062,40.2783L55.7969,25.8923L55.1481,9.9284C50.0318,9.045,45.0972,9.9284,45.0972,9.9284L44.1245,38.8592L44.7319,40.326L31.969,33.6604L17.8187,26.239C14.4973,30.2284,12.7942,34.9435,12.7942,34.9435L37.3617,50.2503L38.4301,50.3914L26.556,57.9332L13.0535,66.4758C13.0535,66.4758,14.5841,70.5711,17.7562,74.6186C17.6754,74.5148,43.7825,61.8375,43.7825,61.8375L44.4797,60.4444L45.0961,74.9996L45.7439,90.9635C45.7439,90.9635,50.055,91.6881,55.1461,90.9635C55.0159,90.9822,57.0913,62.0337,57.0913,62.0337L56.4305,60.8368L69.146,67.4775L83.2983,74.8999C83.2983,74.8999,86.0799,71.5282,87.9989,66.7571C87.9515,66.8786,63.9167,50.6084,63.9167,50.6084Z"/>
</svg>