<svg version="1.2" baseProfile="tiny" viewBox="0 0 100.893 103.81" xmlns:xlink="http://www.w3.org/1999/xlink" xmlns="http://www.w3.org/2000/svg">
<path style="fill:#ffffff;" d="M99.3927,50.4475C99.3927,23.4143,77.4788,1.5001,50.4465,1.5001C23.4142,1.5001,1.5003,23.4143,1.5003,50.4475C1.5003,60.9458,4.8156,70.6645,10.4444,78.635L4.7793,98.1389L4.7793,102.3099L50.4465,102.3099L96.1147,102.3099L96.1147,98.1389L90.4506,78.634C96.0774,70.6645,99.3927,60.9448,99.3927,50.4475M50.4465,92.2622C28.3005,92.0795,17.2144,75.8166,17.2144,75.8166C11.8337,68.7803,8.6314,59.9887,8.6314,50.4475C8.6314,27.3529,27.3521,8.6318,50.4465,8.6318C73.5399,8.6318,92.2606,27.3529,92.2606,50.4475C92.2606,59.9887,89.0583,68.7803,83.6766,75.8166C83.6776,75.8166,72.5834,92.4459,50.4465,92.2622Z"/>
</svg>