<svg version="1.2" baseProfile="tiny" viewBox="0 0 32 32" xmlns:xlink="http://www.w3.org/1999/xlink" xmlns="http://www.w3.org/2000/svg">
<path style="fill:#ffffff;" d="M31.284,6.55802H30.413V4.07302C30.413,3.65902,30.077,3.32302,29.663,3.32302H23.563C23.149,3.32302,22.813,3.65902,22.813,4.07302V6.55802H20.413V4.07302C20.413,3.65902,20.077,3.32302,19.663,3.32302H13.563C13.149,3.32302,12.813,3.65902,12.813,4.07302V6.55802H10.964V3.17102C10.964,2.77502,10.643,2.45502,10.248,2.45502H2.605C2.209,2.45502,1.889,2.77602,1.889,3.17102V6.55802H0.716C0.321,6.55802,0,6.87902,0,7.27402V28.829C0,29.225,0.321,29.545,0.716,29.545H31.283C31.679,29.545,31.999,29.224,31.999,28.829V7.27402C32,6.87902,31.679,6.55802,31.284,6.55802ZM24.313,4.82302H28.913V6.35502H24.313V4.82302V4.82302ZM14.313,4.82302H18.913V6.35502H14.313V4.82302ZM30.567,28.112H1.433V7.99102H1.889H3.322V6.55802V3.88802H9.531V6.55802V7.99102H10.964H30.568V28.112H30.567Z M6.42599,13.428C6.42599,13.824,6.74699,14.144,7.14199,14.144H24.857C25.253,14.144,25.573,13.823,25.573,13.428C25.573,13.033,25.252,12.712,24.857,12.712H7.14299C6.74699,12.711,6.42599,13.032,6.42599,13.428Z M24.857,17.335H7.143C6.747,17.335,6.427,17.656,6.427,18.051C6.427,18.447,6.748,18.767,7.143,18.767H24.858C25.254,18.767,25.574,18.446,25.574,18.051C25.574,17.656,25.253,17.335,24.857,17.335Z M24.857,21.959H7.143C6.747,21.959,6.427,22.28,6.427,22.675C6.427,23.071,6.748,23.391,7.143,23.391H24.858C25.254,23.391,25.574,23.07,25.574,22.675C25.574,22.28,25.253,21.959,24.857,21.959Z"/>
</svg>